# xmcd
#
# Track frame offsets:
#	150
#	21929
#	46901
#	69412
#	90403
#	112078
#	138145
#	159119
#	180336
#	201162
#
# Disc length: 3097 seconds
#
# Revision: 0
# Processed by: cddbd v1.5.2PL0 Copyright (c) Steve Scherf et al.
# Submitted via: EZCDAudioConverter 8.0.2.1
#
DISCID=760c170a
DTITLE=Various Artist - st.  Phú Quang. Vol 05. Về Lại Phố Xưa
DYEAR=2006
DGENRE=
TTITLE0=Hồng Nhung - Về Lại Phố Xưa
TTITLE1=Quang Lý - Hà Nội ngày trở về
TTITLE2=Ngọc Anh - Chiều hoang
TTITLE3=Phú Quang - Catinat café sáng
TTITLE4=Mỹ Hạnh - Chiều không em
TTITLE5=Ngọc Anh - Im lặng đêm Hà Nội
TTITLE6=Thanh Long Bass - Thế rồi
TTITLE7=Thanh Lam - Trong miền ký ức
TTITLE8=Ngọc Anh - Lang thang
TTITLE9=Quang Lý, Phú Quang, Nhóm Tigôn - Ngọn nến
EXTD=
EXTT0=
EXTT1=
EXTT2=
EXTT3=
EXTT4=
EXTT5=
EXTT6=
EXTT7=
EXTT8=
EXTT9=
PLAYORDER=
